<?xml version="1.0" encoding="UTF-8" standalone="no"?>
<!DOCTYPE svg PUBLIC "-//W3C//DTD SVG 1.1//EN" "http://www.w3.org/Graphics/SVG/1.1/DTD/svg11.dtd">
<svg xmlns="http://www.w3.org/2000/svg" xmlns:xlink="http://www.w3.org/1999/xlink" version="1.1" width="300pt" height="104pt" viewBox="0 0 300 104">
<g enable-background="new">
<g id="Layer-1" data-name="Réteg 1">
<clipPath id="cp0">
<path transform="matrix(1,0,0,-1,0,104)" d="M 0 0 L 300 0 L 300 104 L 0 104 Z "/>
</clipPath>
<g clip-path="url(#cp0)">
<path transform="matrix(1,0,0,-1,282.4268,46.8594)" d="M 0 0 C -1.04 0 -1.887 -.848 -1.887 -1.889 C -1.887 -2.929 -1.04 -3.774 0 -3.774 C 1.041 -3.774 1.888 -2.929 1.888 -1.889 C 1.888 -.848 1.041 0 0 0 M 0 -4.221 C -1.287 -4.221 -2.334 -3.175 -2.334 -1.889 C -2.334 -.601 -1.287 .447 0 .447 C 1.287 .447 2.334 -.601 2.334 -1.889 C 2.334 -3.175 1.287 -4.221 0 -4.221 " fill="#ffffff"/>
<path transform="matrix(1,0,0,-1,282.2168,47.8247)" d="M 0 0 C -.097 0 -.187 -.003 -.269 -.012 L -.269 -.868 L -.068 -.868 C .044 -.868 .142 -.862 .227 -.849 C .312 -.836 .384 -.813 .439 -.78 C .497 -.747 .54 -.703 .569 -.647 C .599 -.59 .614 -.519 .614 -.432 C .614 -.351 .599 -.282 .569 -.226 C .54 -.17 .499 -.125 .444 -.092 C .389 -.059 .324 -.036 .248 -.021 C .174 -.007 .091 0 0 0 M -.032 .417 C .332 .417 .611 .346 .805 .206 C .998 .066 1.095 -.148 1.095 -.436 C 1.095 -.795 .926 -1.039 .588 -1.167 C .634 -1.225 .687 -1.296 .744 -1.38 C .803 -1.464 .862 -1.556 .924 -1.654 C .984 -1.752 1.043 -1.853 1.099 -1.956 C 1.154 -2.06 1.205 -2.161 1.247 -2.26 L .734 -2.26 C .687 -2.168 .638 -2.076 .584 -1.982 C .53 -1.89 .477 -1.799 .422 -1.711 C .367 -1.624 .312 -1.541 .26 -1.463 C .206 -1.385 .156 -1.316 .11 -1.254 C .076 -1.257 .046 -1.258 .023 -1.258 L -.047 -1.258 L -.269 -1.258 L -.269 -2.26 L -.729 -2.26 L -.729 .352 C -.617 .377 -.498 .394 -.371 .403 C -.245 .412 -.132 .417 -.032 .417 " fill="#ffffff"/>
</g>
<path transform="matrix(1,0,0,-1,0,104)" d="M 150 0 L 299.998 0 L 299.998 104 L 150 104 Z " fill="#00457c"/>
<clipPath id="cp1">
<path transform="matrix(1,0,0,-1,0,104)" d="M 0 0 L 300 0 L 300 104 L 0 104 Z "/>
</clipPath>
<g clip-path="url(#cp1)">
<path transform="matrix(1,0,0,-1,209.0654,53.46)" d="M 0 0 L 1.766 3.64 L 3.503 0 Z M -8.596 2.35 L -11.331 2.35 L -11.331 4.689 L -8.647 4.689 C -7.86 4.689 -7.441 4.338 -7.441 3.516 C -7.441 2.738 -7.813 2.35 -8.596 2.35 M 3.345 6.957 L .158 6.957 L -4.406 -2.24 L -6.36 .835 L -6.146 .872 C -5.798 .931 -5.365 1.161 -5.093 1.377 C -4.33 1.979 -4.05 2.879 -4.05 3.828 C -4.05 5.689 -5.443 6.957 -7.286 6.957 L -14.698 6.957 L -14.698 -3.782 L -11.331 -3.782 L -11.331 .156 L -9.194 .156 L -6.746 -3.775 L -5.401 -3.775 C -4.206 -3.775 -2.916 -3.78 -1.745 -3.782 L -.8 -1.979 L 4.303 -1.979 L 5.249 -3.782 L 8.675 -3.782 Z " fill="#ffffff"/>
<path transform="matrix(1,0,0,-1,179.3535,46.5386)" d="M 0 0 L 7.169 0 C 5.877 -.76 4.77 -1.965 4.771 -3.916 L 4.763 -10.672 L 0 -10.672 Z " fill="#ffffff"/>
<path transform="matrix(1,0,0,-1,184.9053,50.5796)" d="M 0 0 C 0 -2.187 1.783 -3.969 3.97 -3.969 C 6.157 -3.969 7.938 -2.187 7.938 0 C 7.938 2.179 6.167 3.964 3.989 3.969 C 1.807 3.975 0 2.194 0 0 M 5.821 1.514 C 6.177 1.085 6.375 .541 6.375 -.02 C 6.375 -1.338 5.301 -2.415 3.979 -2.415 C 3.525 -2.415 3.069 -2.275 2.688 -2.034 Z M 2.117 -1.512 C 1.762 -1.085 1.564 -.54 1.564 .021 C 1.564 1.34 2.641 2.416 3.959 2.416 C 4.4 2.416 4.841 2.285 5.212 2.059 Z " fill="#ffffff"/>
<path transform="matrix(1,0,0,-1,234.0684,46.5024)" d="M 0 0 L -5.531 .009 L -8.045 -5.021 L -11.118 -.043 L -14.167 -5.021 L -16.68 .009 L -20.016 .009 L -14.809 -10.754 L -13.579 -10.754 L -11.162 -5.888 L -8.635 -10.754 L -7.402 -10.754 L -2.951 -1.554 L -2.951 -10.741 L 2.563 -10.741 L 3.912 -8.087 L 0 -8.087 Z " fill="#ffffff"/>
<path transform="matrix(1,0,0,-1,252.5293,46.4121)" d="M 0 0 L -2.958 0 L -2.957 -10.845 L 2.565 -10.845 L 3.92 -8.166 L 0 -8.166 Z " fill="#ffffff"/>
<path transform="matrix(1,0,0,-1,266.8643,46.4121)" d="M 0 0 L -3.048 0 L -3.048 -5.698 C -3.048 -7.146 -3.354 -8.132 -4.912 -8.124 C -5.221 -8.124 -5.54 -8.112 -5.83 -7.997 C -6.682 -7.659 -6.782 -6.574 -6.782 -5.782 L -6.782 0 L -9.931 0 L -9.931 -5.694 C -9.931 -6.536 -9.919 -7.62 -9.695 -8.437 C -9.573 -8.881 -9.353 -9.284 -9.031 -9.619 C -8.64 -10.031 -8.09 -10.317 -7.561 -10.519 C -6.782 -10.814 -5.642 -10.845 -4.815 -10.845 C -4.03 -10.845 -3.139 -10.783 -2.396 -10.522 C -1.887 -10.34 -1.301 -10.11 -.911 -9.723 C -.542 -9.358 -.332 -8.85 -.203 -8.355 C -.001 -7.562 0 -6.423 0 -5.606 Z " fill="#ffffff"/>
<path transform="matrix(1,0,0,-1,277.7334,50.0532)" d="M 0 0 L 0 2.685 C -1.334 3.321 -2.709 3.63 -4.191 3.641 C -7.303 3.633 -10.233 1.426 -10.243 -1.845 C -10.166 -5.58 -7.861 -7.058 -4.298 -7.204 C -2.691 -7.202 -1.081 -6.823 -.021 -5.539 L -.021 -2.199 L -2.981 -2.199 L -2.981 -4.072 L -2.993 -4.101 C -3.122 -4.391 -3.396 -4.507 -3.7 -4.545 C -5.82 -4.702 -7.152 -3.874 -7.131 -1.642 C -7.135 -1.115 -7.004 -.609 -6.702 -.174 C -6.095 .694 -5.008 1.012 -3.996 1.04 C -2.63 1.075 -1.215 .619 0 0 " fill="#ffffff"/>
<path transform="matrix(1,0,0,-1,244.4473,51.2017)" d="M 0 0 L -2.625 0 L -2.625 2.536 L -.032 2.536 C .649 2.536 1.314 2.328 1.314 1.287 C 1.314 .363 .819 0 0 0 M .852 4.726 L -5.85 4.684 L -5.85 -6.073 L -2.643 -6.073 L -2.643 -2.409 C .157 -2.409 4.261 -3.102 4.303 1.466 C 4.303 3.278 2.713 4.726 .852 4.726 " fill="#ffffff"/>
<path transform="matrix(1,0,0,-1,-.1523,140.7734)" d="M 0 0 L 0 171.624 L 150.448 171.624 L 150.448 107.932 L 167.382 89.455 L 150.448 70.754 L 150.448 0 Z " fill="#d60929"/>
<path transform="matrix(1,0,0,-1,32.8013,58.875)" d="M 0 0 C -.147 0 -.268 .122 -.268 .274 C -.268 .425 -.147 .547 0 .547 L 85.273 .547 C 85.42 .547 85.54 .425 85.54 .274 C 85.54 .122 85.42 0 85.273 0 Z M 66.446 15.776 L 66.446 15.775 L 65.058 15.775 C 64.974 15.775 64.873 15.771 64.791 15.753 C 64.789 15.751 64.785 15.751 64.782 15.75 C 64.779 15.738 64.775 15.723 64.773 15.716 C 64.757 15.642 64.755 15.558 64.755 15.481 L 64.755 11.902 C 66.453 11.903 68.149 11.914 69.847 11.914 L 69.974 11.914 L 69.974 10.351 L 64.755 10.351 L 64.755 6.543 C 64.755 6.46 64.763 6.343 64.805 6.27 C 64.824 6.239 64.849 6.223 64.884 6.214 C 65.063 6.167 65.363 6.16 65.552 6.152 C 67.641 6.061 69.733 6.141 71.823 6.141 L 71.99 6.141 L 71.667 4.924 L 71.599 4.695 L 62.056 4.695 L 62.056 17.191 L 71.487 17.191 L 71.521 15.776 Z M 49.837 13.9 L 49.837 9.45 L 48.26 9.45 L 48.26 9.579 C 48.26 12.193 48.268 14.553 48.268 17.168 L 48.268 17.296 L 50.274 17.296 L 57.999 9.19 C 57.997 11.85 57.98 14.509 57.98 17.168 L 57.98 17.296 L 59.564 17.296 L 59.574 4.589 L 58.732 4.589 Z M 31.252 15.776 L 31.252 15.775 L 29.818 15.775 C 29.733 15.775 29.632 15.771 29.551 15.753 C 29.547 15.751 29.543 15.751 29.541 15.75 C 29.538 15.738 29.535 15.723 29.533 15.715 C 29.517 15.642 29.515 15.558 29.515 15.481 L 29.515 11.902 C 31.21 11.903 32.909 11.914 34.606 11.914 L 34.733 11.914 L 34.733 10.351 L 34.606 10.351 L 29.515 10.351 L 29.515 6.543 C 29.515 6.46 29.522 6.343 29.565 6.27 C 29.583 6.239 29.608 6.223 29.643 6.214 C 29.823 6.167 30.124 6.16 30.311 6.152 C 32.4 6.061 34.493 6.141 36.583 6.141 L 36.749 6.141 L 36.425 4.924 L 36.357 4.695 L 26.847 4.695 L 26.847 17.191 L 36.248 17.191 L 36.281 15.776 Z M 13.259 15.776 C 13.885 16.322 14.615 16.752 15.4 17.029 C 16.225 17.321 17.092 17.445 17.966 17.445 C 19.223 17.445 20.437 17.189 21.541 16.576 C 22.723 15.915 23.712 14.893 24.25 13.643 C 24.618 12.786 24.769 11.868 24.769 10.939 C 24.769 9.581 24.446 8.293 23.652 7.18 C 22.885 6.107 21.728 5.277 20.485 4.846 C 19.673 4.562 18.824 4.441 17.966 4.441 C 16.191 4.441 14.439 5.017 13.129 6.235 L 13.125 6.239 C 12.49 6.835 11.988 7.534 11.654 8.338 C 11.31 9.165 11.166 10.046 11.166 10.939 C 11.166 11.868 11.317 12.787 11.687 13.646 C 12.043 14.475 12.579 15.183 13.259 15.776 M 2.109 12.046 L 7.908 17.191 L 10.371 17.191 L 4.371 11.789 L 11.827 4.695 L 8.069 4.695 L 2.416 10.285 L 2.109 10.046 C 2.109 8.305 2.115 6.564 2.115 4.823 L 2.115 4.695 L -.566 4.695 L -.566 17.191 L 2.115 17.191 L 2.115 17.062 C 2.115 15.391 2.109 13.718 2.109 12.046 M 76.426 15.467 L 76.426 15.465 L 76.426 11.658 C 77.272 11.691 78.222 11.709 79.044 11.911 C 79.988 12.141 80.783 12.644 80.783 13.76 C 80.783 14.632 80.385 15.247 79.451 15.613 C 78.843 15.851 78.131 15.902 77.475 15.902 L 77.472 15.902 C 77.072 15.902 76.789 15.884 76.622 15.851 C 76.594 15.845 76.571 15.84 76.55 15.833 C 76.542 15.831 76.533 15.828 76.526 15.825 L 76.526 15.824 L 76.522 15.821 C 76.504 15.812 76.488 15.792 76.475 15.762 C 76.472 15.756 76.467 15.749 76.463 15.738 L 76.463 15.736 C 76.438 15.67 76.426 15.581 76.426 15.467 M 16.418 15.873 C 15.943 15.659 15.51 15.337 15.118 14.906 C 14.729 14.476 14.435 13.923 14.236 13.25 C 14.036 12.568 13.937 11.87 13.937 10.939 C 13.937 10.01 14.036 9.313 14.235 8.633 C 14.432 7.961 14.724 7.41 15.115 6.98 C 15.503 6.549 15.937 6.226 16.413 6.013 C 16.885 5.801 17.403 5.694 17.966 5.694 C 18.519 5.694 19.029 5.799 19.498 6.005 C 19.969 6.214 20.403 6.527 20.798 6.947 C 21.238 7.417 21.512 7.999 21.685 8.589 C 21.887 9.276 21.989 9.986 21.989 10.938 L 21.989 10.939 C 21.989 12.32 21.777 13.312 21.357 14.134 C 21.278 14.288 21.19 14.433 21.093 14.573 C 20.995 14.711 20.893 14.837 20.785 14.948 L 20.784 14.951 L 20.783 14.951 L 20.783 14.952 C 20.45 15.298 20.09 15.574 19.705 15.775 C 19.631 15.814 19.556 15.851 19.479 15.884 C 18.537 16.298 17.356 16.296 16.418 15.873 M 41.857 6.17 C 42 6.158 42.142 6.144 42.285 6.14 C 42.587 6.127 42.891 6.131 43.193 6.131 C 44.124 6.131 45.873 6.176 46.733 6.542 C 47.536 6.884 47.906 7.572 48.19 8.348 L 48.222 8.431 L 49.828 8.431 L 48.67 4.696 L 38.857 4.696 L 38.857 4.825 C 38.857 8.195 38.86 11.565 38.86 14.936 C 38.86 14.994 38.859 15.053 38.857 15.113 L 38.857 17.193 L 41.546 17.193 L 41.546 15.316 C 41.541 15.232 41.539 15.144 41.539 15.058 L 41.539 6.545 C 41.539 6.48 41.542 6.411 41.559 6.346 C 41.565 6.31 41.578 6.273 41.599 6.242 L 41.602 6.24 C 41.621 6.23 41.667 6.213 41.712 6.196 L 41.713 6.219 Z M 80.272 10.733 L 85.839 4.695 L 82.165 4.695 L 82.063 4.811 L 77.304 10.308 L 76.6 10.283 L 76.6 4.823 L 76.6 4.695 L 73.903 4.695 L 73.903 4.823 C 73.903 5.602 73.911 6.381 73.911 7.161 L 73.911 7.162 L 73.903 17.191 L 78.147 17.191 C 78.703 17.191 79.261 17.163 79.813 17.089 C 80.283 17.026 80.753 16.93 81.203 16.778 C 81.896 16.547 82.566 16.187 83.034 15.614 C 83.473 15.074 83.661 14.434 83.661 13.742 C 83.661 11.881 81.861 11.051 80.272 10.733 " fill="#ffffff"/>
<path transform="matrix(1,0,0,-1,34.3481,66.905307)" d="M 0 0 L 0 4.463 L .59 4.463 L .59 2.631 L 2.911 2.631 L 2.911 4.463 L 3.501 4.463 L 3.501 0 L 2.911 0 L 2.911 2.104 L .59 2.104 L .59 0 Z " fill="#ffffff"/>
<path transform="matrix(1,0,0,-1,48.8701,62.4424)" d="M 0 0 L .59 0 L .59 -2.578 C .59 -3.027 .54 -3.383 .438 -3.646 C .337 -3.911 .153 -4.125 -.111 -4.291 C -.376 -4.456 -.724 -4.539 -1.154 -4.539 C -1.572 -4.539 -1.914 -4.467 -2.18 -4.323 C -2.446 -4.179 -2.636 -3.97 -2.75 -3.697 C -2.863 -3.424 -2.92 -3.051 -2.92 -2.578 L -2.92 0 L -2.329 0 L -2.329 -2.575 C -2.329 -2.963 -2.293 -3.249 -2.221 -3.433 C -2.149 -3.616 -2.025 -3.758 -1.85 -3.857 C -1.674 -3.956 -1.459 -4.006 -1.206 -4.006 C -.771 -4.006 -.462 -3.908 -.277 -3.711 C -.093 -3.514 0 -3.136 0 -2.575 Z " fill="#ffffff"/>
<path transform="matrix(1,0,0,-1,57.5459,66.905307)" d="M 0 0 L 0 4.463 L .606 4.463 L 2.95 .959 L 2.95 4.463 L 3.516 4.463 L 3.516 0 L 2.911 0 L .566 3.508 L .566 0 Z " fill="#ffffff"/>
<path transform="matrix(1,0,0,-1,71.252,65.1543)" d="M 0 0 L 0 .523 L 1.891 .526 L 1.891 -1.13 C 1.6 -1.361 1.301 -1.535 .992 -1.652 C .684 -1.769 .367 -1.827 .042 -1.827 C -.396 -1.827 -.794 -1.733 -1.152 -1.546 C -1.511 -1.357 -1.781 -1.086 -1.964 -.731 C -2.146 -.376 -2.238 .021 -2.238 .459 C -2.238 .894 -2.147 1.299 -1.965 1.676 C -1.784 2.052 -1.522 2.332 -1.182 2.515 C -.84 2.697 -.448 2.788 -.003 2.788 C .319 2.788 .611 2.736 .872 2.632 C 1.133 2.527 1.337 2.382 1.485 2.194 C 1.634 2.008 1.747 1.765 1.824 1.464 L 1.291 1.318 C 1.224 1.545 1.141 1.724 1.041 1.854 C .941 1.983 .799 2.088 .615 2.166 C .43 2.244 .225 2.283 0 2.283 C -.27 2.283 -.503 2.242 -.701 2.16 C -.897 2.077 -1.056 1.97 -1.177 1.836 C -1.298 1.701 -1.392 1.555 -1.458 1.395 C -1.572 1.118 -1.629 .818 -1.629 .496 C -1.629 .098 -1.561 -.234 -1.423 -.503 C -1.287 -.771 -1.087 -.97 -.825 -1.1 C -.563 -1.229 -.285 -1.294 .009 -1.294 C .265 -1.294 .514 -1.245 .758 -1.146 C 1.001 -1.048 1.186 -.943 1.312 -.831 L 1.312 0 Z " fill="#ffffff"/>
<path transform="matrix(1,0,0,-1,82.2876,62.168)" d="M 0 0 L .405 .853 L 1.124 .853 L .454 0 Z M -.368 -2.904 L 1.145 -2.904 L .679 -1.668 C .537 -1.293 .432 -.984 .362 -.743 C .306 -1.029 .226 -1.313 .122 -1.596 Z M -1.656 -4.737 L .058 -.274 L .694 -.274 L 2.521 -4.737 L 1.848 -4.737 L 1.328 -3.386 L -.539 -3.386 L -1.029 -4.737 Z " fill="#ffffff"/>
<path transform="matrix(1,0,0,-1,92.9888,64.4121)" d="M 0 0 L 1.27 0 C 1.539 0 1.75 .028 1.903 .084 C 2.055 .14 2.17 .229 2.25 .352 C 2.329 .475 2.369 .608 2.369 .752 C 2.369 .964 2.292 1.137 2.139 1.273 C 1.985 1.409 1.743 1.477 1.413 1.477 L 0 1.477 Z M -.591 -2.493 L -.591 1.97 L 1.388 1.97 C 1.786 1.97 2.088 1.93 2.295 1.85 C 2.502 1.77 2.668 1.628 2.792 1.425 C 2.916 1.223 2.978 .998 2.978 .752 C 2.978 .436 2.875 .169 2.67 -.049 C 2.465 -.266 2.148 -.403 1.72 -.463 C 1.876 -.537 1.995 -.611 2.076 -.685 C 2.249 -.843 2.412 -1.041 2.566 -1.278 L 3.343 -2.493 L 2.6 -2.493 L 2.009 -1.564 C 1.836 -1.297 1.694 -1.092 1.583 -.949 C 1.471 -.808 1.372 -.708 1.283 -.651 C 1.195 -.595 1.105 -.555 1.014 -.532 C .947 -.519 .837 -.511 .685 -.511 L 0 -.511 L 0 -2.493 Z " fill="#ffffff"/>
<path transform="matrix(1,0,0,-1,0,104)" d="M 104.1 41.558 L 104.691 41.558 L 104.691 37.094999 L 104.1 37.094999 Z " fill="#ffffff"/>
<path transform="matrix(1,0,0,-1,113.6382,65.072299)" d="M 0 0 L 1.513 0 L 1.047 1.236 C .905 1.611 .8 1.92 .73 2.161 C .674 1.875 .594 1.591 .49 1.309 Z M -1.288 -1.833 L .426 2.63 L 1.062 2.63 L 2.889 -1.833 L 2.216 -1.833 L 1.696 -.481 L -.17 -.481 L -.661 -1.833 Z " fill="#ffffff"/>
<path transform="matrix(1,0,0,-1,282.4268,46.8594)" d="M 0 0 C -1.04 0 -1.887 -.848 -1.887 -1.889 C -1.887 -2.929 -1.04 -3.774 0 -3.774 C 1.041 -3.774 1.888 -2.929 1.888 -1.889 C 1.888 -.848 1.041 0 0 0 M 0 -4.221 C -1.287 -4.221 -2.334 -3.175 -2.334 -1.889 C -2.334 -.601 -1.287 .447 0 .447 C 1.287 .447 2.334 -.601 2.334 -1.889 C 2.334 -3.175 1.287 -4.221 0 -4.221 " fill="#ffffff"/>
<path transform="matrix(1,0,0,-1,282.2168,47.8247)" d="M 0 0 C -.097 0 -.187 -.003 -.269 -.012 L -.269 -.868 L -.068 -.868 C .044 -.868 .142 -.862 .227 -.849 C .312 -.836 .384 -.813 .439 -.78 C .497 -.747 .54 -.703 .569 -.647 C .599 -.59 .614 -.519 .614 -.432 C .614 -.351 .599 -.282 .569 -.226 C .54 -.17 .499 -.125 .444 -.092 C .389 -.059 .324 -.036 .248 -.021 C .174 -.007 .091 0 0 0 M -.032 .417 C .332 .417 .611 .346 .805 .206 C .998 .066 1.095 -.148 1.095 -.436 C 1.095 -.795 .926 -1.039 .588 -1.167 C .634 -1.225 .687 -1.296 .744 -1.38 C .803 -1.464 .862 -1.556 .924 -1.654 C .984 -1.752 1.043 -1.853 1.099 -1.956 C 1.154 -2.06 1.205 -2.161 1.247 -2.26 L .734 -2.26 C .687 -2.168 .638 -2.076 .584 -1.982 C .53 -1.89 .477 -1.799 .422 -1.711 C .367 -1.624 .312 -1.541 .26 -1.463 C .206 -1.385 .156 -1.316 .11 -1.254 C .076 -1.257 .046 -1.258 .023 -1.258 L -.047 -1.258 L -.269 -1.258 L -.269 -2.26 L -.729 -2.26 L -.729 .352 C -.617 .377 -.498 .394 -.371 .403 C -.245 .412 -.132 .417 -.032 .417 " fill="#ffffff"/>
</g>
</g>
</g>
</svg>
